/* XPM */
static const char * pintoolicon_xpm[] = {
"32 32 618 2",
"  	c None",
". 	c #F5CB46",
"+ 	c #F8D454",
"@ 	c #F7D453",
"# 	c #F3D251",
"$ 	c #F1CF4F",
"% 	c #F0CD4D",
"& 	c #EFCD4D",
"* 	c #EFCC4C",
"= 	c #F0CA49",
"- 	c #EFC63D",
"; 	c #F6D75C",
"> 	c #FBEC6B",
", 	c #FCED73",
"' 	c #F7E28B",
") 	c #F4E4A8",
"! 	c #F4E8B8",
"~ 	c #F4E9BB",
"{ 	c #F4E9BA",
"] 	c #F3E7B8",
"^ 	c #F1E3B0",
"/ 	c #EEDA97",
"( 	c #EBD06D",
"_ 	c #EECB50",
": 	c #EFC845",
"< 	c #F2C033",
"[ 	c #FAE886",
"} 	c #FDFD99",
"| 	c #FAF9B6",
"1 	c #FAF7C6",
"2 	c #FEF5A6",
"3 	c #FCE880",
"4 	c #F7DE6B",
"5 	c #F4D863",
"6 	c #F2D461",
"7 	c #F1D35F",
"8 	c #F1D465",
"9 	c #F3DC7E",
"0 	c #F5E5A2",
"a 	c #EEE1B2",
"b 	c #EED479",
"c 	c #EDC844",
"d 	c #F1CA4D",
"e 	c #F6D471",
"f 	c #FBF2AC",
"g 	c #FCFCC2",
"h 	c #FCFCE0",
"i 	c #FDFEF7",
"j 	c #FCF9C1",
"k 	c #FDEE68",
"l 	c #FFE456",
"m 	c #F9D853",
"n 	c #F4D24D",
"o 	c #F1CE4A",
"p 	c #F0CC49",
"q 	c #EFCB48",
"r 	c #EEC73C",
"s 	c #EACD69",
"t 	c #F6F0CD",
"u 	c #F9F8EC",
"v 	c #EFE0AA",
"w 	c #ECC94D",
"x 	c #F0CB4C",
"y 	c #F5D268",
"z 	c #FCF6BC",
"A 	c #FCFCDB",
"B 	c #FCFCE2",
"C 	c #FDFDE9",
"D 	c #FFFFBC",
"E 	c #FDFDC3",
"F 	c #FAF4C8",
"G 	c #FDE76B",
"H 	c #FCDD55",
"I 	c #F6D656",
"J 	c #F2D052",
"K 	c #F0CF4F",
"L 	c #EFC942",
"M 	c #EAD179",
"N 	c #F5F1D5",
"O 	c #F2DC7A",
"P 	c #F5E9B6",
"Q 	c #F8EEC3",
"R 	c #F1E1A8",
"S 	c #EDCF65",
"T 	c #EEC948",
"U 	c #FBF3AA",
"V 	c #FCFCDE",
"W 	c #FEFEBD",
"X 	c #FBFBD7",
"Y 	c #FFFFC3",
"Z 	c #FFFF7D",
"` 	c #FCFDBB",
" .	c #FAF1C7",
"..	c #FBE061",
"+.	c #F7D753",
"@.	c #F3D255",
"#.	c #F1CC44",
"$.	c #EBD075",
"%.	c #F4EFD3",
"&.	c #F6DF7A",
"*.	c #E9C339",
"=.	c #F5E9BB",
"-.	c #F3D86C",
";.	c #F1D366",
">.	c #F2E5B8",
",.	c #EDCF66",
"'.	c #EFC949",
").	c #FAE880",
"!.	c #FCFCC5",
"~.	c #FDFDE3",
"{.	c #FFFFC1",
"].	c #FFFFB1",
"^.	c #FCFCD1",
"/.	c #FFFF8B",
"(.	c #FEFD73",
"_.	c #FCF9BF",
":.	c #FAEDB4",
"<.	c #F9D954",
"[.	c #F4D249",
"}.	c #ECCF62",
"|.	c #F3EDCE",
"1.	c #F6E081",
"2.	c #EEC636",
"3.	c #ECCD63",
"4.	c #F5EAB8",
"5.	c #F2D464",
"6.	c #EDC536",
"7.	c #F1D56F",
"8.	c #F2E5B4",
"9.	c #EDCC53",
"0.	c #EFC749",
"a.	c #F6D75A",
"b.	c #FDFD9A",
"c.	c #FBFBD5",
"d.	c #FFFFB5",
"e.	c #FEFEAB",
"f.	c #FFFFAF",
"g.	c #FCFCB9",
"h.	c #FCFCDA",
"i.	c #FFFF9F",
"j.	c #FFFE78",
"k.	c #FEF472",
"l.	c #FBF4CE",
"m.	c #F9E183",
"n.	c #F2CE42",
"o.	c #F1E3AF",
"p.	c #F7E9A6",
"q.	c #EFCA40",
"r.	c #EDC63A",
"s.	c #EFD98C",
"t.	c #F5E9B2",
"u.	c #EFCD4B",
"v.	c #EECA4B",
"w.	c #EEC83F",
"x.	c #F1DB8C",
"y.	c #F1DD95",
"z.	c #EECB4E",
"A.	c #FBEB6A",
"B.	c #FBF8A4",
"C.	c #FEFEC2",
"D.	c #FFFF8C",
"E.	c #FEFF9F",
"F.	c #FFFFA3",
"G.	c #FDFD9B",
"H.	c #FBFBDA",
"I.	c #FDFEAF",
"J.	c #FFFF7A",
"K.	c #FFF567",
"L.	c #FBED92",
"M.	c #F8EAB3",
"N.	c #F2D97B",
"O.	c #F6EEC4",
"P.	c #F3D456",
"Q.	c #EFCA46",
"R.	c #EBC747",
"S.	c #F1E5B3",
"T.	c #F6E393",
"U.	c #EDC73E",
"V.	c #EFCB4C",
"W.	c #EECB4D",
"X.	c #F4E6B6",
"Y.	c #EECD53",
"Z.	c #F0CF60",
"`.	c #F7CF54",
" +	c #FEEC6D",
".+	c #F8F3BC",
"++	c #FFFD8A",
"@+	c #FFFF7E",
"#+	c #FFFF8A",
"$+	c #FEFF91",
"%+	c #FBFCAD",
"&+	c #FCFCD5",
"*+	c #FFFC7C",
"=+	c #FFF46A",
"-+	c #FDE55F",
";+	c #F8EEC6",
">+	c #F4ECC8",
",+	c #F8E89D",
"'+	c #EFCA41",
")+	c #EFC941",
"!+	c #ECD278",
"~+	c #F6EFC8",
"{+	c #F1D155",
"]+	c #EFCC4E",
"^+	c #EECA48",
"/+	c #F0D98A",
"(+	c #F2DB86",
"_+	c #EECD59",
":+	c #F8D65A",
"<+	c #F8DE72",
"[+	c #FCF4BD",
"}+	c #FFEE67",
"|+	c #FFF470",
"1+	c #FFFA70",
"2+	c #FFFD72",
"3+	c #FFFE74",
"4+	c #FFFD6D",
"5+	c #FCFABD",
"6+	c #FDF6AE",
"7+	c #FFED61",
"8+	c #FFE256",
"9+	c #F7E7A5",
"0+	c #FCFBF2",
"a+	c #F4D967",
"b+	c #F0CA43",
"c+	c #ECCB56",
"d+	c #F2E8BF",
"e+	c #F5DE7B",
"f+	c #EDC534",
"g+	c #EFCA44",
"h+	c #EFCA45",
"i+	c #EFCC4B",
"j+	c #EFCB4A",
"k+	c #EECE5F",
"l+	c #F4E7B7",
"m+	c #EDC73F",
"n+	c #F1D373",
"o+	c #F5D355",
"p+	c #F2DE90",
"q+	c #FCEB90",
"r+	c #FEDE4D",
"s+	c #FAE159",
"t+	c #FAE978",
"u+	c #FAF192",
"v+	c #FBF59F",
"w+	c #FCF69A",
"x+	c #F9F29D",
"y+	c #F9F5E0",
"z+	c #FBE990",
"A+	c #FBDA49",
"B+	c #F4DC7A",
"C+	c #FBF5D6",
"D+	c #F3D047",
"E+	c #ECC849",
"F+	c #EEE1B4",
"G+	c #F7F0CB",
"H+	c #EED576",
"I+	c #EFD786",
"J+	c #EFD784",
"K+	c #EDD273",
"L+	c #EBCA56",
"M+	c #ECC53B",
"N+	c #F2E2A8",
"O+	c #EFCE56",
"P+	c #EFD16D",
"Q+	c #F3D150",
"R+	c #F2E3AA",
"S+	c #F2DC79",
"T+	c #F5E29A",
"U+	c #F9F0C5",
"V+	c #FAF2BF",
"W+	c #FAF0B6",
"X+	c #FBEFB4",
"Y+	c #FBF0B4",
"Z+	c #FAF0B1",
"`+	c #FBF6D4",
" @	c #FDFCF9",
".@	c #F5E08C",
"+@	c #F2D45B",
"@@	c #F6E7A2",
"#@	c #EDCB52",
"$@	c #EFE2B9",
"%@	c #FEFFFC",
"&@	c #F6EDB8",
"*@	c #F2E5AA",
"=@	c #F3E6AB",
"-@	c #F3E6AC",
";@	c #F3E7B1",
">@	c #F5EABE",
",@	c #F2E5B6",
"'@	c #ECD47F",
")@	c #EDD88A",
"!@	c #F4DB7F",
"~@	c #EECC58",
"{@	c #F1CD48",
"]@	c #F4EBCB",
"^@	c #F7F3D7",
"/@	c #F6E79B",
"(@	c #F8E17F",
"_@	c #FADE6E",
":@	c #FADD60",
"<@	c #FBDD5A",
"[@	c #FBDE5C",
"}@	c #FBDF64",
"|@	c #FBE06A",
"1@	c #FAE279",
"2@	c #F5E394",
"3@	c #EEDC93",
"4@	c #EDE1AA",
"5@	c #EEDE99",
"6@	c #F5E38C",
"7@	c #F3D769",
"8@	c #F1D25E",
"9@	c #F0D054",
"0@	c #F0CE4D",
"a@	c #F0CE50",
"b@	c #F1D25D",
"c@	c #F4D86D",
"d@	c #F4DC81",
"e@	c #F3E3A7",
"f@	c #F7F2DF",
"g@	c #F6E193",
"h@	c #ECC749",
"i@	c #F0CA47",
"j@	c #F4EDD1",
"k@	c #F4EDC8",
"l@	c #F0D672",
"m@	c #EEC839",
"n@	c #F3CD3C",
"o@	c #F4CF43",
"p@	c #F5D043",
"q@	c #F4CE3E",
"r@	c #F0CB3B",
"s@	c #F0CD48",
"t@	c #EFD56F",
"u@	c #EFE09E",
"v@	c #F4EBC1",
"w@	c #EEDA8A",
"x@	c #EDCE5C",
"y@	c #EAC43B",
"z@	c #EBC333",
"A@	c #EEC63A",
"B@	c #EEC73D",
"C@	c #EEC73B",
"D@	c #ECC435",
"E@	c #E9C238",
"F@	c #ECCA51",
"G@	c #EFD889",
"H@	c #F8F5E1",
"I@	c #F6E49A",
"J@	c #EBC646",
"K@	c #F2E5B5",
"L@	c #F5E6A7",
"M@	c #F3E7B7",
"N@	c #F0E4B1",
"O@	c #F2E2A6",
"P@	c #F2DE94",
"Q@	c #F1DB88",
"R@	c #F2DE92",
"S@	c #F2E0A0",
"T@	c #F3EAC8",
"U@	c #F5EAB5",
"V@	c #F1D86B",
"W@	c #F1DC8E",
"X@	c #F1D679",
"Y@	c #F2E9C8",
"Z@	c #F0DD96",
"`@	c #F0DA8C",
" #	c #F0D888",
".#	c #F0DD9A",
"+#	c #F1E2AB",
"@#	c #F1E7B8",
"##	c #F5EBB8",
"$#	c #F6EBB4",
"%#	c #F5E08A",
"&#	c #ECC951",
"*#	c #EECB4C",
"=#	c #EFDC9B",
"-#	c #F1D56A",
";#	c #EFCD4A",
">#	c #F4DC7D",
",#	c #F6E59F",
"'#	c #F4E6A9",
")#	c #F1E3A3",
"!#	c #F7F8F0",
"~#	c #FCF6CE",
"{#	c #F0CF4B",
"]#	c #EBCC5E",
"^#	c #F7ECC1",
"/#	c #EDC73C",
"(#	c #FCFAF2",
"_#	c #F5F0D0",
":#	c #F2E2A0",
"<#	c #F3E6AD",
"[#	c #F2E6AB",
"}#	c #F4E7A8",
"|#	c #F7E597",
"1#	c #F3D96D",
"2#	c #EECC4A",
"3#	c #EFDC92",
"4#	c #F3D96F",
"5#	c #EECF68",
"6#	c #EFCA4D",
"7#	c #ECD274",
"8#	c #F5E3A4",
"9#	c #EECA47",
"0#	c #EEC843",
"a#	c #EFCC46",
"b#	c #F0CF50",
"c#	c #F0CC44",
"d#	c #ECD680",
"e#	c #F6EDBA",
"f#	c #F0D051",
"g#	c #EDC73D",
"h#	c #EDD78C",
"i#	c #FCF7E6",
"j#	c #EFCE54",
"k#	c #EFD472",
"l#	c #F4E9BD",
"m#	c #EFCF58",
"n#	c #EECA41",
"o#	c #EDC740",
"p#	c #EFCD5A",
"q#	c #F4E9BC",
"r#	c #EFCC45",
"s#	c #F0D681",
"t#	c #F0CA50",
"u#	c #EDCD58",
"v#	c #F3E5B6",
"w#	c #EFCC4F",
"x#	c #EECA4C",
"y#	c #E9C957",
"z#	c #F4EDCD",
"A#	c #F3D96E",
"B#	c #EDC843",
"C#	c #F1E4B7",
"D#	c #F9F7E7",
"E#	c #F3DA7E",
"F#	c #EEC841",
"G#	c #EDC841",
"H#	c #F2DF9C",
"I#	c #F4E5AF",
"J#	c #EECA49",
"K#	c #ECD272",
"L#	c #F7EAAA",
"M#	c #ECC744",
"N#	c #F2DB90",
"O#	c #EEDB93",
"P#	c #F3DA80",
"Q#	c #EEC944",
"R#	c #EFCC50",
"S#	c #EFDFA7",
"T#	c #F5E8A4",
"U#	c #EECA44",
"V#	c #EACB5D",
"W#	c #F5ECC1",
"X#	c #F2E19C",
"Y#	c #F5E6B2",
"Z#	c #EECD58",
"`#	c #F3E8BF",
" $	c #F2D775",
".$	c #EEC943",
"+$	c #EECC4E",
"@$	c #EFCC4D",
"#$	c #EDC946",
"$$	c #F1E3AB",
"%$	c #F2D96B",
"&$	c #EED26C",
"*$	c #F0C949",
"=$	c #EED26D",
"-$	c #F2E3AD",
";$	c #F0CC4C",
">$	c #EAC955",
",$	c #F4ECC2",
"'$	c #F3D972",
")$	c #EEC942",
"!$	c #ECC63E",
"~$	c #EFE1AE",
"{$	c #F5E698",
"]$	c #EECC50",
"^$	c #F2E7BF",
"/$	c #F1D77A",
"($	c #EEC73E",
"_$	c #F2E09E",
":$	c #F4E3A5",
"<$	c #EDC840",
"[$	c #ECCF67",
"}$	c #F5EAB3",
"|$	c #EECB47",
"1$	c #EFD377",
"2$	c #F0DE9D",
"3$	c #F1DC8F",
"4$	c #EFC93E",
"5$	c #EED682",
"6$	c #F3E8B1",
"7$	c #F1D052",
"8$	c #EDC537",
"9$	c #EBD27C",
"0$	c #F6F0CC",
"a$	c #F2D45E",
"b$	c #EDC539",
"c$	c #F0D985",
"d$	c #F4EAC5",
"e$	c #EECC53",
"f$	c #EEC738",
"g$	c #EFD577",
"h$	c #F3E6B3",
"i$	c #F0D05A",
"j$	c #EBC749",
"k$	c #F2E6B5",
"l$	c #F3DB72",
"m$	c #EDCC56",
"n$	c #EFC84A",
"o$	c #EECC51",
"p$	c #F1E4B3",
"q$	c #F0D882",
"r$	c #EBC12D",
"s$	c #F1DE9D",
"t$	c #F5E7A7",
"u$	c #EDC42D",
"v$	c #EACE6A",
"w$	c #F5DD79",
"x$	c #F3E2A7",
"y$	c #F3E5B9",
"z$	c #EDCA49",
"A$	c #ECC94B",
"B$	c #F6EABE",
"C$	c #F3D569",
"D$	c #EBC43E",
"E$	c #F0E1A8",
"F$	c #F5E69B",
"G$	c #EDC83E",
"H$	c #EFD175",
"I$	c #EECA50",
"J$	c #EECD55",
"K$	c #F3E4AF",
"L$	c #EBD587",
"M$	c #F0E2A9",
"N$	c #F5DE83",
"O$	c #E9CB63",
"P$	c #F3EFD3",
"Q$	c #F6E289",
"R$	c #EEC941",
"S$	c #EECB4A",
"T$	c #EECA4A",
"U$	c #F4E6B2",
"V$	c #F3E7BC",
"W$	c #E9C544",
"X$	c #F5E6B0",
"Y$	c #F2DD92",
"Z$	c #F0DF9F",
"`$	c #F5E79E",
" %	c #EEC93D",
".%	c #EED070",
"+%	c #EECB54",
"@%	c #F1DF9E",
"#%	c #F7F3DD",
"$%	c #F6ECC8",
"%%	c #F3EBC1",
"&%	c #F4DE7A",
"*%	c #EEC83C",
"=%	c #EFCB4B",
"-%	c #EECB4B",
";%	c #F4E2A2",
">%	c #F2E4B3",
",%	c #F6EFDA",
"'%	c #F7F4D7",
")%	c #F4DF80",
"!%	c #EDC73B",
"~%	c #EDD175",
"{%	c #EECD5D",
"]%	c #EEC945",
"^%	c #F3D877",
"/%	c #F9F5E1",
"(%	c #F3E6AE",
"_%	c #EFCD56",
":%	c #EECC52",
"<%	c #EECB4F",
"[%	c #EECC54",
"}%	c #EBCE65",
"|%	c #F5F0D6",
"1%	c #F9F2C4",
"2%	c #F2D45C",
"3%	c #ECC742",
"4%	c #EED582",
"5%	c #EECD63",
"6%	c #EDCA4E",
"7%	c #F2DB80",
"8%	c #F4E8B9",
"9%	c #F1E3AC",
"0%	c #F0DF9B",
"a%	c #F1DE96",
"b%	c #F0DE98",
"c%	c #F0E0A0",
"d%	c #F2E6B6",
"e%	c #F6EBB1",
"f%	c #F3D969",
"g%	c #EDC83C",
"h%	c #ECCD5D",
"i%	c #F0DA96",
"j%	c #EECD61",
"k%	c #F0D053",
"l%	c #F3D76A",
"m%	c #F4DA75",
"n%	c #F4DB77",
"o%	c #F3D973",
"p%	c #F2D665",
"q%	c #F0CF4A",
"r%	c #EDCE62",
"s%	c #EFD379",
"t%	c #EFD273",
"u%	c #EFD275",
"v%	c #EED26F",
"w%	c #EED170",
"x%	c #EED371",
"y%	c #EFD477",
"z%	c #F0D680",
"A%	c #F1D785",
"                                                                ",
"                                                                ",
"                      . + @ # $ % & * = -                       ",
"                  ; > , ' ) ! ~ { ] ^ / ( _ : <                 ",
"                [ } | 1 2 3 4 5 6 7 8 9 0 a b c d               ",
"            e f g h i j k l m n o p q r s t u v w x             ",
"          y z A B C D E F G H I J K L M N O P Q R S T           ",
"          U V C W X Y Z `  ...+.@.#.$.%.&.*.=.-.;.>.,.'.        ",
"        ).!.~.{.].^.^./.(._.:.<.[.}.|.1.2.3.4.5.6.7.8.9.0.      ",
"      a.b.c.d.e.f.g.h.i.j.k.l.m.n.o.p.q.r.s.t.u.v.w.x.y.z.      ",
"      A.B.C.D.E.F.G.H.I.J.K.L.M.N.O.P.Q.R.S.T.U.z.V.W.X.Y.Z.    ",
"    `. +.+++@+#+$+D.%+&+*+=+-+;+>+,+'+)+!+~+{+v.]+W.^+/+(+_+    ",
"    :+<+[+}+|+1+2+3+4+5+6+7+8+9+0+a+b+c+d+e+f+g+h+i+j+k+l+m+n+  ",
"    o+p+q+r+s+t+u+v+w+x+y+z+A+B+C+D+E+F+G+H+I+J+K+L+M+* N+O+P+  ",
"    Q+R+S+T+U+V+W+X+Y+Z+`+ @.@+@@@#@$@%@&@*@=@-@;@>@,@'@)@!@~@  ",
"    {@]@^@/@(@_@:@<@[@}@|@1@2@3@4@5@6@7@8@9@0@a@b@c@d@e@f@g@h@  ",
"    i@j@k@l@i+m@n@o@p@q@r@s@t@u@v@w@x@y@z@A@B@C@D@E@F@G@H@I@J@  ",
"    j+K@L@M@N@O@P@Q@Q@R@S@T@U@V@W@X@Y@>.Z@`@J+ #.#+#@###$#%#&#  ",
"    *#=#-#;#>#,#=@-@'#)#!#~#{#]#^#/#7.(#_#:#<#[#}#|#1#2#3#4#5#  ",
"    6#7#8#9#0#/#a#b#c#d#e#f#g#h#i#j#U.k#l#m#p 0@n#g#o#p#q#r#s#  ",
"    t#u#v#w#W.W.x#Q.y#z#A#o#B#C#D#E#F#G#H#I#m+*#*#W.J#K#L#M#N#  ",
"      Y.O#P#Q#w#R#m+S#T#U#Q.V#W#X#Y#B#Q.Z#`# $.$+$@$#$$$%$&$    ",
"      *$=$-$9#V.;$>$,$'$)$!$~${$]$^$/$($U._$:$<$]+h+[$}$|$1$    ",
"        v.2$3$U.4$5$6$7$8$9$0$a$b$c$d$e$f$g$h$i$)+j$k$l$m$      ",
"        n$o$p$q$r$s$t$u$v$%.w$G#]+B#x$y$z$A$B$C$D$E$F$G$H$      ",
"          I$J$K$L$M$N$O$P$Q$R$z.w#S$T$U$V$W$X$Y$Z$`$ %.%        ",
"            +%J#@%#%$%%%&%*%T$=%-%=%Q#.$;%>%,%'%)%!%~%          ",
"              {%]%^%/%(%F@_%:%<%<%_ [%e$}%|%1%2%3%4%            ",
"                5%6%U#7%8%9%0%a%a%b%c%d%e%f%g%h%i%              ",
"                    j%c+R$k%l%m%n%o%p%q%o#r%s%                  ",
"                        t%u%t%v%w%x%y%z%A%                      ",
"                                                                "};
